<svg width="128" height="128" viewBox="0 0 128 128" fill="none" xmlns="http://www.w3.org/2000/svg">
<path d="M51.936 8C49.8143 8 47.7794 8.84285 46.2791 10.3431C44.7789 11.8434 43.936 13.8783 43.936 16V40C43.936 42.1217 44.7789 44.1566 46.2791 45.6569C47.7794 47.1571 49.8143 48 51.936 48H59.936V55.92C59.0721 55.9477 58.2183 56.1152 57.408 56.416L41 61.888L35.528 45.48C34.8586 43.4665 33.4167 41.8013 31.5196 40.8509C29.6225 39.9005 27.4255 39.7426 25.412 40.412C23.3985 41.0814 21.7333 42.5233 20.7829 44.4204C19.8325 46.3175 19.6746 48.5145 20.344 50.528L28.344 74.528C28.6758 75.5251 29.2008 76.4471 29.889 77.2413C30.5772 78.0355 31.4151 78.6863 32.3549 79.1566C33.2947 79.6269 34.3179 79.9074 35.3661 79.9821C36.4143 80.0568 37.467 79.9242 38.464 79.592L51.936 75.112V79.992C51.936 80.32 52.088 80.6 52.128 80.92L15.496 105.336C13.7307 106.514 12.5055 108.344 12.0899 110.425C11.6744 112.506 12.1024 114.667 13.28 116.432C14.4576 118.197 16.2882 119.422 18.3691 119.838C20.45 120.254 22.6107 119.826 24.376 118.648L64.824 91.688L76.784 115.576C77.6444 117.298 79.0968 118.652 80.8748 119.39C82.6529 120.127 84.6373 120.199 86.464 119.592L110.464 111.592C111.482 111.278 112.427 110.763 113.244 110.079C114.06 109.394 114.732 108.553 115.219 107.606C115.706 106.658 115.999 105.623 116.081 104.561C116.162 103.498 116.031 102.43 115.694 101.419C115.357 100.408 114.822 99.475 114.12 98.6738C113.417 97.8727 112.562 97.2199 111.604 96.7538C110.645 96.2878 109.604 96.0178 108.54 95.9598C107.476 95.9018 106.411 96.0569 105.408 96.416L87.984 102.216L80.184 86.608C81.3189 85.9137 82.2587 84.9422 82.915 83.7849C83.5714 82.6276 83.9227 81.3224 83.936 79.992V72H95L100.776 83.584C101.246 84.5243 101.897 85.3627 102.691 86.0515C103.485 86.7403 104.407 87.2659 105.405 87.5983C106.402 87.9308 107.455 88.0635 108.503 87.989C109.552 87.9145 110.576 87.6341 111.516 87.164C112.456 86.6939 113.295 86.0431 113.984 85.249C114.672 84.4548 115.198 83.5327 115.53 82.5354C115.863 81.5381 115.996 80.4851 115.921 79.4365C115.846 78.3879 115.566 77.3643 115.096 76.424L107.096 60.424C106.431 59.0941 105.41 57.9758 104.145 57.1943C102.88 56.4129 101.423 55.9993 99.936 56H75.936V48H83.936C86.0577 48 88.0926 47.1571 89.5929 45.6569C91.0931 44.1566 91.936 42.1217 91.936 40V16C91.936 13.8783 91.0931 11.8434 89.5929 10.3431C88.0926 8.84285 86.0577 8 83.936 8H51.936ZM51.936 24H59.936V40H51.936V24Z" fill="white"/>
</svg>
