<svg width="324" height="324" viewBox="0 0 324 324" fill="none" xmlns="http://www.w3.org/2000/svg">
<path d="M104 146L98 152V155L107 146H104Z" fill="#CACACA"/>
<path d="M101 146L98 146V149L101 146Z" fill="#CACACA"/>
<path d="M127 177L130 177V174L127 177Z" fill="#CACACA"/>
<path d="M123 178L130 171V168L120 178H123Z" fill="#CACACA"/>
<path d="M110 146L98 158V161L113 146H110Z" fill="#CACACA"/>
<path d="M117 178L130 165V162L114 178H117Z" fill="#CACACA"/>
<path d="M116 146L98 164V167L119 146H116Z" fill="#CACACA"/>
<path d="M111 178L130 159L130 156L108 178L111 178Z" fill="#CACACA"/>
<path d="M122 146L98 170V173L125 146H122Z" fill="#CACACA"/>
<path d="M105 178L130 153V150L102 178H105Z" fill="#CACACA"/>
<path d="M128 146L98 176L99 178L130 147L128 146Z" fill="#CACACA"/>
</svg>
