<svg width="324" height="324" viewBox="0 0 324 324" fill="none" xmlns="http://www.w3.org/2000/svg">
<path d="M2 2H322" stroke="#CACACA" stroke-width="2" stroke-linecap="square"/>
<path d="M18 18H66" stroke="#CACACA" stroke-width="2" stroke-linecap="square"/>
<path d="M114 18H130" stroke="#CACACA" stroke-width="2" stroke-linecap="square"/>
<path d="M242 18H258" stroke="#CACACA" stroke-width="2" stroke-linecap="square"/>
<path d="M274 18H290" stroke="#CACACA" stroke-width="2" stroke-linecap="square"/>
<path d="M2 34H18" stroke="#CACACA" stroke-width="2" stroke-linecap="square"/>
<path d="M50 34H82" stroke="#CACACA" stroke-width="2" stroke-linecap="square"/>
<path d="M98 34H114" stroke="#CACACA" stroke-width="2" stroke-linecap="square"/>
<path d="M130 34H146" stroke="#CACACA" stroke-width="2" stroke-linecap="square"/>
<path d="M162 34H178" stroke="#CACACA" stroke-width="2" stroke-linecap="square"/>
<path d="M258 34H274" stroke="#CACACA" stroke-width="2" stroke-linecap="square"/>
<path d="M18 50H50" stroke="#CACACA" stroke-width="2" stroke-linecap="square"/>
<path d="M82 50H98" stroke="#CACACA" stroke-width="2" stroke-linecap="square"/>
<path d="M114 50H130" stroke="#CACACA" stroke-width="2" stroke-linecap="square"/>
<path d="M146 50H162" stroke="#CACACA" stroke-width="2" stroke-linecap="square"/>
<path d="M178 50H210" stroke="#CACACA" stroke-width="2" stroke-linecap="square"/>
<path d="M290 50H306" stroke="#CACACA" stroke-width="2" stroke-linecap="square"/>
<path d="M18 66H34" stroke="#CACACA" stroke-width="2" stroke-linecap="square"/>
<path d="M66 66H82" stroke="#CACACA" stroke-width="2" stroke-linecap="square"/>
<path d="M130 66H146" stroke="#CACACA" stroke-width="2" stroke-linecap="square"/>
<path d="M162 66H226" stroke="#CACACA" stroke-width="2" stroke-linecap="square"/>
<path d="M274 66H290" stroke="#CACACA" stroke-width="2" stroke-linecap="square"/>
<path d="M2 82H18" stroke="#CACACA" stroke-width="2" stroke-linecap="square"/>
<path d="M82 82H130" stroke="#CACACA" stroke-width="2" stroke-linecap="square"/>
<path d="M146 82H178" stroke="#CACACA" stroke-width="2" stroke-linecap="square"/>
<path d="M258 82H322" stroke="#CACACA" stroke-width="2" stroke-linecap="square"/>
<path d="M18 98H50" stroke="#CACACA" stroke-width="2" stroke-linecap="square"/>
<path d="M66 98H82" stroke="#CACACA" stroke-width="2" stroke-linecap="square"/>
<path d="M178 98H194" stroke="#CACACA" stroke-width="2" stroke-linecap="square"/>
<path d="M210 98H290" stroke="#CACACA" stroke-width="2" stroke-linecap="square"/>
<path d="M50 114H66" stroke="#CACACA" stroke-width="2" stroke-linecap="square"/>
<path d="M114 114H210" stroke="#CACACA" stroke-width="2" stroke-linecap="square"/>
<path d="M290 114H306" stroke="#CACACA" stroke-width="2" stroke-linecap="square"/>
<path d="M18 130H66" stroke="#CACACA" stroke-width="2" stroke-linecap="square"/>
<path d="M98 130H194" stroke="#CACACA" stroke-width="2" stroke-linecap="square"/>
<path d="M210 130H258" stroke="#CACACA" stroke-width="2" stroke-linecap="square"/>
<path d="M274 130H306" stroke="#CACACA" stroke-width="2" stroke-linecap="square"/>
<path d="M82 146H162" stroke="#CACACA" stroke-width="2" stroke-linecap="square"/>
<path d="M210 146H242" stroke="#CACACA" stroke-width="2" stroke-linecap="square"/>
<path d="M258 146H274" stroke="#CACACA" stroke-width="2" stroke-linecap="square"/>
<path d="M306 146H322" stroke="#CACACA" stroke-width="2" stroke-linecap="square"/>
<path d="M2 162H34" stroke="#CACACA" stroke-width="2" stroke-linecap="square"/>
<path d="M50 162H82" stroke="#CACACA" stroke-width="2" stroke-linecap="square"/>
<path d="M130 162H146" stroke="#CACACA" stroke-width="2" stroke-linecap="square"/>
<path d="M178 162H210" stroke="#CACACA" stroke-width="2" stroke-linecap="square"/>
<path d="M242 162H322" stroke="#CACACA" stroke-width="2" stroke-linecap="square"/>
<path d="M34 178H50" stroke="#CACACA" stroke-width="2" stroke-linecap="square"/>
<path d="M146 178H194" stroke="#CACACA" stroke-width="2" stroke-linecap="square"/>
<path d="M226 178H306" stroke="#CACACA" stroke-width="2" stroke-linecap="square"/>
<path d="M82 194H98" stroke="#CACACA" stroke-width="2" stroke-linecap="square"/>
<path d="M162 194H178" stroke="#CACACA" stroke-width="2" stroke-linecap="square"/>
<path d="M194 194H274" stroke="#CACACA" stroke-width="2" stroke-linecap="square"/>
<path d="M306 194H322" stroke="#CACACA" stroke-width="2" stroke-linecap="square"/>
<path d="M18 210H50" stroke="#CACACA" stroke-width="2" stroke-linecap="square"/>
<path d="M66 210H82" stroke="#CACACA" stroke-width="2" stroke-linecap="square"/>
<path d="M98 210H130" stroke="#CACACA" stroke-width="2" stroke-linecap="square"/>
<path d="M146 210H162" stroke="#CACACA" stroke-width="2" stroke-linecap="square"/>
<path d="M194 210H226" stroke="#CACACA" stroke-width="2" stroke-linecap="square"/>
<path d="M242 210H258" stroke="#CACACA" stroke-width="2" stroke-linecap="square"/>
<path d="M98 226H114" stroke="#CACACA" stroke-width="2" stroke-linecap="square"/>
<path d="M130 226H146" stroke="#CACACA" stroke-width="2" stroke-linecap="square"/>
<path d="M178 226H194" stroke="#CACACA" stroke-width="2" stroke-linecap="square"/>
<path d="M210 226H242" stroke="#CACACA" stroke-width="2" stroke-linecap="square"/>
<path d="M290 226H306" stroke="#CACACA" stroke-width="2" stroke-linecap="square"/>
<path d="M34 242H82" stroke="#CACACA" stroke-width="2" stroke-linecap="square"/>
<path d="M114 242H130" stroke="#CACACA" stroke-width="2" stroke-linecap="square"/>
<path d="M162 242H210" stroke="#CACACA" stroke-width="2" stroke-linecap="square"/>
<path d="M242 242H274" stroke="#CACACA" stroke-width="2" stroke-linecap="square"/>
<path d="M306 242H322" stroke="#CACACA" stroke-width="2" stroke-linecap="square"/>
<path d="M18 258H50" stroke="#CACACA" stroke-width="2" stroke-linecap="square"/>
<path d="M82 258H130" stroke="#CACACA" stroke-width="2" stroke-linecap="square"/>
<path d="M162 258H210" stroke="#CACACA" stroke-width="2" stroke-linecap="square"/>
<path d="M226 258H258" stroke="#CACACA" stroke-width="2" stroke-linecap="square"/>
<path d="M274 258H306" stroke="#CACACA" stroke-width="2" stroke-linecap="square"/>
<path d="M50 274H82" stroke="#CACACA" stroke-width="2" stroke-linecap="square"/>
<path d="M98 274H130" stroke="#CACACA" stroke-width="2" stroke-linecap="square"/>
<path d="M146 274H162" stroke="#CACACA" stroke-width="2" stroke-linecap="square"/>
<path d="M194 274H226" stroke="#CACACA" stroke-width="2" stroke-linecap="square"/>
<path d="M274 274H322" stroke="#CACACA" stroke-width="2" stroke-linecap="square"/>
<path d="M18 290H50" stroke="#CACACA" stroke-width="2" stroke-linecap="square"/>
<path d="M82 290H114" stroke="#CACACA" stroke-width="2" stroke-linecap="square"/>
<path d="M130 290H146" stroke="#CACACA" stroke-width="2" stroke-linecap="square"/>
<path d="M162 290H194" stroke="#CACACA" stroke-width="2" stroke-linecap="square"/>
<path d="M274 290H290" stroke="#CACACA" stroke-width="2" stroke-linecap="square"/>
<path d="M18 306H34" stroke="#CACACA" stroke-width="2" stroke-linecap="square"/>
<path d="M82 306H162" stroke="#CACACA" stroke-width="2" stroke-linecap="square"/>
<path d="M210 306H274" stroke="#CACACA" stroke-width="2" stroke-linecap="square"/>
<path d="M290 306H306" stroke="#CACACA" stroke-width="2" stroke-linecap="square"/>
<path d="M2 322H322" stroke="#CACACA" stroke-width="2" stroke-linecap="square"/>
<path d="M2 2V322" stroke="#CACACA" stroke-width="2" stroke-linecap="square"/>
<path d="M18 114V146" stroke="#CACACA" stroke-width="2" stroke-linecap="square"/>
<path d="M18 178V258" stroke="#CACACA" stroke-width="2" stroke-linecap="square"/>
<path d="M18 274V306" stroke="#CACACA" stroke-width="2" stroke-linecap="square"/>
<path d="M34 18V50" stroke="#CACACA" stroke-width="2" stroke-linecap="square"/>
<path d="M34 66V114" stroke="#CACACA" stroke-width="2" stroke-linecap="square"/>
<path d="M34 130V194" stroke="#CACACA" stroke-width="2" stroke-linecap="square"/>
<path d="M34 226V242" stroke="#CACACA" stroke-width="2" stroke-linecap="square"/>
<path d="M34 258V274" stroke="#CACACA" stroke-width="2" stroke-linecap="square"/>
<path d="M50 50V98" stroke="#CACACA" stroke-width="2" stroke-linecap="square"/>
<path d="M50 178V226" stroke="#CACACA" stroke-width="2" stroke-linecap="square"/>
<path d="M50 274V290" stroke="#CACACA" stroke-width="2" stroke-linecap="square"/>
<path d="M50 306V322" stroke="#CACACA" stroke-width="2" stroke-linecap="square"/>
<path d="M66 2V18" stroke="#CACACA" stroke-width="2" stroke-linecap="square"/>
<path d="M66 34V130" stroke="#CACACA" stroke-width="2" stroke-linecap="square"/>
<path d="M66 146V226" stroke="#CACACA" stroke-width="2" stroke-linecap="square"/>
<path d="M66 242V258" stroke="#CACACA" stroke-width="2" stroke-linecap="square"/>
<path d="M66 274V322" stroke="#CACACA" stroke-width="2" stroke-linecap="square"/>
<path d="M82 18V34" stroke="#CACACA" stroke-width="2" stroke-linecap="square"/>
<path d="M82 50V66" stroke="#CACACA" stroke-width="2" stroke-linecap="square"/>
<path d="M82 98V146" stroke="#CACACA" stroke-width="2" stroke-linecap="square"/>
<path d="M82 162V194" stroke="#CACACA" stroke-width="2" stroke-linecap="square"/>
<path d="M82 226V274" stroke="#CACACA" stroke-width="2" stroke-linecap="square"/>
<path d="M82 290V306" stroke="#CACACA" stroke-width="2" stroke-linecap="square"/>
<path d="M98 18V34" stroke="#CACACA" stroke-width="2" stroke-linecap="square"/>
<path d="M98 66V130" stroke="#CACACA" stroke-width="2" stroke-linecap="square"/>
<path d="M98 194V210" stroke="#CACACA" stroke-width="2" stroke-linecap="square"/>
<path d="M98 226V242" stroke="#CACACA" stroke-width="2" stroke-linecap="square"/>
<path d="M114 18V82" stroke="#CACACA" stroke-width="2" stroke-linecap="square"/>
<path d="M114 98V114" stroke="#CACACA" stroke-width="2" stroke-linecap="square"/>
<path d="M114 178L114 194" stroke="#CACACA" stroke-width="2" stroke-linecap="square"/>
<path d="M114 226V242" stroke="#CACACA" stroke-width="2" stroke-linecap="square"/>
<path d="M114 274V290" stroke="#CACACA" stroke-width="2" stroke-linecap="square"/>
<path d="M130 82V98" stroke="#CACACA" stroke-width="2" stroke-linecap="square"/>
<path d="M130 162L130 226" stroke="#CACACA" stroke-width="2" stroke-linecap="square"/>
<path d="M130 242V258" stroke="#CACACA" stroke-width="2" stroke-linecap="square"/>
<path d="M146 2V18" stroke="#CACACA" stroke-width="2" stroke-linecap="square"/>
<path d="M146 34V114" stroke="#CACACA" stroke-width="2" stroke-linecap="square"/>
<path d="M146 178V210" stroke="#CACACA" stroke-width="2" stroke-linecap="square"/>
<path d="M146 226V290" stroke="#CACACA" stroke-width="2" stroke-linecap="square"/>
<path d="M162 2V34" stroke="#CACACA" stroke-width="2" stroke-linecap="square"/>
<path d="M162 50V66" stroke="#CACACA" stroke-width="2" stroke-linecap="square"/>
<path d="M162 98V114" stroke="#CACACA" stroke-width="2" stroke-linecap="square"/>
<path d="M162 210V242" stroke="#CACACA" stroke-width="2" stroke-linecap="square"/>
<path d="M162 290V322" stroke="#CACACA" stroke-width="2" stroke-linecap="square"/>
<path d="M178 18V50" stroke="#CACACA" stroke-width="2" stroke-linecap="square"/>
<path d="M178 82V98" stroke="#CACACA" stroke-width="2" stroke-linecap="square"/>
<path d="M178 130V146" stroke="#CACACA" stroke-width="2" stroke-linecap="square"/>
<path d="M178 194V226" stroke="#CACACA" stroke-width="2" stroke-linecap="square"/>
<path d="M178 274V290" stroke="#CACACA" stroke-width="2" stroke-linecap="square"/>
<path d="M178 306V322" stroke="#CACACA" stroke-width="2" stroke-linecap="square"/>
<path d="M194 2V34" stroke="#CACACA" stroke-width="2" stroke-linecap="square"/>
<path d="M194 66V82" stroke="#CACACA" stroke-width="2" stroke-linecap="square"/>
<path d="M194 130V162" stroke="#CACACA" stroke-width="2" stroke-linecap="square"/>
<path d="M194 210V226" stroke="#CACACA" stroke-width="2" stroke-linecap="square"/>
<path d="M194 274V306" stroke="#CACACA" stroke-width="2" stroke-linecap="square"/>
<path d="M210 18V50" stroke="#CACACA" stroke-width="2" stroke-linecap="square"/>
<path d="M210 66V82" stroke="#CACACA" stroke-width="2" stroke-linecap="square"/>
<path d="M210 98V130" stroke="#CACACA" stroke-width="2" stroke-linecap="square"/>
<path d="M210 162V194" stroke="#CACACA" stroke-width="2" stroke-linecap="square"/>
<path d="M210 242V258" stroke="#CACACA" stroke-width="2" stroke-linecap="square"/>
<path d="M210 290V322" stroke="#CACACA" stroke-width="2" stroke-linecap="square"/>
<path d="M226 2V50" stroke="#CACACA" stroke-width="2" stroke-linecap="square"/>
<path d="M226 82V98" stroke="#CACACA" stroke-width="2" stroke-linecap="square"/>
<path d="M226 114V130" stroke="#CACACA" stroke-width="2" stroke-linecap="square"/>
<path d="M226 146V178" stroke="#CACACA" stroke-width="2" stroke-linecap="square"/>
<path d="M226 194V210" stroke="#CACACA" stroke-width="2" stroke-linecap="square"/>
<path d="M226 226V290" stroke="#CACACA" stroke-width="2" stroke-linecap="square"/>
<path d="M242 18V82" stroke="#CACACA" stroke-width="2" stroke-linecap="square"/>
<path d="M242 98V114" stroke="#CACACA" stroke-width="2" stroke-linecap="square"/>
<path d="M242 274V306" stroke="#CACACA" stroke-width="2" stroke-linecap="square"/>
<path d="M258 2V18" stroke="#CACACA" stroke-width="2" stroke-linecap="square"/>
<path d="M258 34V66" stroke="#CACACA" stroke-width="2" stroke-linecap="square"/>
<path d="M258 114V162" stroke="#CACACA" stroke-width="2" stroke-linecap="square"/>
<path d="M258 210V290" stroke="#CACACA" stroke-width="2" stroke-linecap="square"/>
<path d="M274 18V66" stroke="#CACACA" stroke-width="2" stroke-linecap="square"/>
<path d="M274 114V130" stroke="#CACACA" stroke-width="2" stroke-linecap="square"/>
<path d="M274 194V242" stroke="#CACACA" stroke-width="2" stroke-linecap="square"/>
<path d="M274 258V274" stroke="#CACACA" stroke-width="2" stroke-linecap="square"/>
<path d="M274 290V306" stroke="#CACACA" stroke-width="2" stroke-linecap="square"/>
<path d="M290 18V34" stroke="#CACACA" stroke-width="2" stroke-linecap="square"/>
<path d="M290 66V82" stroke="#CACACA" stroke-width="2" stroke-linecap="square"/>
<path d="M290 130V162" stroke="#CACACA" stroke-width="2" stroke-linecap="square"/>
<path d="M290 178V258" stroke="#CACACA" stroke-width="2" stroke-linecap="square"/>
<path d="M290 306V322" stroke="#CACACA" stroke-width="2" stroke-linecap="square"/>
<path d="M306 2V66" stroke="#CACACA" stroke-width="2" stroke-linecap="square"/>
<path d="M306 82V114" stroke="#CACACA" stroke-width="2" stroke-linecap="square"/>
<path d="M306 210V226" stroke="#CACACA" stroke-width="2" stroke-linecap="square"/>
<path d="M306 290V306" stroke="#CACACA" stroke-width="2" stroke-linecap="square"/>
<path d="M322 2V322" stroke="#CACACA" stroke-width="2" stroke-linecap="square"/>
<path d="M130 159V178H98V146H130V149" stroke="#CACACA" stroke-width="2"/>
</svg>
